<svg width="37" height="37" viewBox="0 0 37 37" fill="none" xmlns="http://www.w3.org/2000/svg">
<g clip-path="url(#clip0_1_146)">
<path d="M6.16667 3.08337H30.8333C31.2422 3.08337 31.6343 3.2458 31.9235 3.53492C32.2126 3.82404 32.375 4.21617 32.375 4.62504V32.375C32.375 32.7839 32.2126 33.176 31.9235 33.4652C31.6343 33.7543 31.2422 33.9167 30.8333 33.9167H6.16667C5.75779 33.9167 5.36566 33.7543 5.07654 33.4652C4.78743 33.176 4.625 32.7839 4.625 32.375V4.62504C4.625 4.21617 4.78743 3.82404 5.07654 3.53492C5.36566 3.2458 5.75779 3.08337 6.16667 3.08337ZM7.70833 6.16671V30.8334H29.2917V6.16671H7.70833ZM10.7917 9.25004H26.2083V15.4167H10.7917V9.25004ZM10.7917 18.5H13.875V21.5834H10.7917V18.5ZM10.7917 24.6667H13.875V27.75H10.7917V24.6667ZM16.9583 18.5H20.0417V21.5834H16.9583V18.5ZM16.9583 24.6667H20.0417V27.75H16.9583V24.6667ZM23.125 18.5H26.2083V27.75H23.125V18.5Z" fill="#5F718D"/>
</g>
<defs>
<clipPath id="clip0_1_146">
<rect width="37" height="37" fill="white"/>
</clipPath>
</defs>
</svg>
