<svg width="37" height="37" viewBox="0 0 37 37" fill="none" xmlns="http://www.w3.org/2000/svg">
<g clip-path="url(#clip0_1_170)">
<path d="M18.5007 33.9167C9.98603 33.9167 3.08398 27.0147 3.08398 18.5C3.08398 9.98542 9.98603 3.08337 18.5007 3.08337C27.0153 3.08337 33.9173 9.98542 33.9173 18.5C33.9173 27.0147 27.0153 33.9167 18.5007 33.9167ZM18.5007 30.8334C21.7717 30.8334 24.9087 29.534 27.2216 27.221C29.5346 24.9081 30.834 21.771 30.834 18.5C30.834 15.229 29.5346 12.092 27.2216 9.77906C24.9087 7.46611 21.7717 6.16671 18.5007 6.16671C15.2296 6.16671 12.0926 7.46611 9.77967 9.77906C7.46672 12.092 6.16732 15.229 6.16732 18.5C6.16732 21.771 7.46672 24.9081 9.77967 27.221C12.0926 29.534 15.2296 30.8334 18.5007 30.8334ZM13.1048 21.5834H21.584C21.7884 21.5834 21.9845 21.5022 22.129 21.3576C22.2736 21.213 22.3548 21.017 22.3548 20.8125C22.3548 20.6081 22.2736 20.412 22.129 20.2675C21.9845 20.1229 21.7884 20.0417 21.584 20.0417H15.4173C14.3951 20.0417 13.4148 19.6356 12.692 18.9128C11.9692 18.1901 11.5632 17.2097 11.5632 16.1875C11.5632 15.1654 11.9692 14.185 12.692 13.4622C13.4148 12.7394 14.3951 12.3334 15.4173 12.3334H16.959V9.25004H20.0423V12.3334H23.8965V15.4167H15.4173C15.2129 15.4167 15.0168 15.4979 14.8723 15.6425C14.7277 15.787 14.6465 15.9831 14.6465 16.1875C14.6465 16.392 14.7277 16.588 14.8723 16.7326C15.0168 16.8772 15.2129 16.9584 15.4173 16.9584H21.584C22.6062 16.9584 23.5865 17.3644 24.3093 18.0872C25.0321 18.81 25.4382 19.7904 25.4382 20.8125C25.4382 21.8347 25.0321 22.8151 24.3093 23.5378C23.5865 24.2606 22.6062 24.6667 21.584 24.6667H20.0423V27.75H16.959V24.6667H13.1048V21.5834Z" fill="#5F718D"/>
</g>
<defs>
<clipPath id="clip0_1_170">
<rect width="37" height="37" fill="white"/>
</clipPath>
</defs>
</svg>
