<svg width="37" height="37" viewBox="0 0 37 37" fill="none" xmlns="http://www.w3.org/2000/svg">
<g clip-path="url(#clip0_1_164)">
<path d="M15.416 11.1308L10.179 15.4167H4.62435V21.5833H10.179L15.416 25.8692V11.1308ZM9.07822 24.6667H3.08268C2.67381 24.6667 2.28168 24.5042 1.99256 24.2151C1.70344 23.926 1.54102 23.5339 1.54102 23.125V13.875C1.54102 13.4661 1.70344 13.074 1.99256 12.7849C2.28168 12.4958 2.67381 12.3333 3.08268 12.3333H9.07822L17.2398 5.65483C17.3527 5.56224 17.4896 5.50364 17.6346 5.48585C17.7795 5.46805 17.9265 5.49179 18.0585 5.55431C18.1905 5.61682 18.302 5.71553 18.38 5.83895C18.4581 5.96237 18.4994 6.10542 18.4993 6.25145V30.7485C18.4994 30.8946 18.4581 31.0376 18.38 31.161C18.302 31.2845 18.1905 31.3832 18.0585 31.4457C17.9265 31.5082 17.7795 31.5319 17.6346 31.5141C17.4896 31.4963 17.3527 31.4377 17.2398 31.3452L9.07822 24.6667ZM29.9169 31.0399L27.7339 28.8569C29.1954 27.5565 30.3646 25.9611 31.1645 24.1759C31.9643 22.3907 32.3767 20.4562 32.3743 18.5C32.3763 16.4435 31.9201 14.4125 31.039 12.5544C30.158 10.6962 28.8741 9.05765 27.2807 7.75766L29.4698 5.56849C31.3483 7.15879 32.8573 9.13974 33.8914 11.3732C34.9256 13.6066 35.4601 16.0387 35.4577 18.5C35.4577 23.4688 33.3209 27.9381 29.9169 31.0399ZM24.4548 25.5778L22.2626 23.3855C23.011 22.81 23.617 22.0701 24.0338 21.2229C24.4505 20.3758 24.6669 19.4441 24.666 18.5C24.666 16.2954 23.5098 14.3606 21.7677 13.2707L23.9861 11.0522C25.1539 11.9112 26.103 13.033 26.7568 14.3269C27.4106 15.6207 27.7506 17.0503 27.7493 18.5C27.7493 21.3397 26.4698 23.8804 24.4548 25.5778Z" fill="#5F718D"/>
</g>
<defs>
<clipPath id="clip0_1_164">
<rect width="37" height="37" fill="white"/>
</clipPath>
</defs>
</svg>
