<svg width="37" height="37" viewBox="0 0 37 37" fill="none" xmlns="http://www.w3.org/2000/svg">
<g clip-path="url(#clip0_1_167)">
<path d="M4.62565 15.4167H3.08398V6.17129C3.08398 5.31721 3.78544 4.625 4.61332 4.625H32.388C32.5904 4.62458 32.7908 4.66441 32.9777 4.74218C33.1645 4.81994 33.334 4.9341 33.4764 5.078C33.6187 5.22189 33.731 5.39266 33.8067 5.58035C33.8824 5.76805 33.92 5.96892 33.9173 6.17129V15.4167H32.3757V30.8349C32.3763 31.0365 32.3371 31.2363 32.2605 31.4228C32.1839 31.6094 32.0713 31.779 31.9292 31.922C31.787 32.065 31.6181 32.1786 31.432 32.2564C31.246 32.3341 31.0464 32.3744 30.8448 32.375H6.15653C5.95488 32.3744 5.75533 32.3341 5.56927 32.2564C5.3832 32.1786 5.21427 32.065 5.07212 31.922C4.92996 31.779 4.81737 31.6094 4.74076 31.4228C4.66416 31.2363 4.62504 31.0365 4.62565 30.8349V15.4167ZM29.2923 15.4167H7.70898V29.2917H29.2923V15.4167ZM6.16732 7.70834V12.3333H30.834V7.70834H6.16732ZM13.8757 18.5H23.1257V21.5833H13.8757V18.5Z" fill="#5F718D"/>
</g>
<defs>
<clipPath id="clip0_1_167">
<rect width="37" height="37" fill="white"/>
</clipPath>
</defs>
</svg>
