<svg width="139" height="23" viewBox="0 0 139 23" fill="none" xmlns="http://www.w3.org/2000/svg">
<g clip-path="url(#clip0_1_183)">
<path d="M2.18736 13.3156V7.95431H-0.015625V5.94138H2.17325V2.98779H4.40919V5.95602H8.6457V7.96892H4.40919V13.223C4.40919 14.7242 5.2706 15.6112 6.60275 15.6112C7.33759 15.5981 8.05266 15.3626 8.65981 14.9338V17.0637C7.97972 17.4941 7.19742 17.7202 6.40034 17.7167C3.65602 17.7362 2.18736 15.9329 2.18736 13.3156Z" fill="black"/>
<path d="M13.1059 0.701904V17.4341H10.8652V0.701904H13.1059Z" fill="black"/>
<path d="M14.9121 11.6779C14.9126 10.8819 15.0662 10.094 15.3639 9.36018C15.6616 8.62633 16.0974 7.96121 16.646 7.40362C17.1946 6.84603 17.845 6.40714 18.5591 6.11256C19.2733 5.81797 20.0369 5.67358 20.8056 5.68781C21.5769 5.66345 22.3451 5.80085 23.0639 6.09176C23.7827 6.38267 24.4373 6.82108 24.9882 7.38062C25.5392 7.94017 25.9752 8.60929 26.27 9.34777C26.5648 10.0863 26.7123 10.8788 26.7037 11.6779V17.434H24.5808V15.421C24.1468 16.1405 23.5391 16.7303 22.8175 17.1321C22.096 17.5338 21.2856 17.7337 20.4666 17.7118C17.261 17.7118 14.9121 14.997 14.9121 11.6779ZM24.4678 11.6779C24.4641 10.9287 24.2461 10.1975 23.8415 9.57653C23.4368 8.95553 22.8636 8.47253 22.194 8.18852C21.5245 7.90451 20.7888 7.8322 20.0796 7.9807C19.3705 8.12921 18.7197 8.49188 18.2094 9.02295C17.6991 9.55403 17.3522 10.2297 17.2124 10.9647C17.0726 11.6997 17.1462 12.4612 17.4239 13.1529C17.7017 13.8447 18.1711 14.4357 18.7729 14.8515C19.3747 15.2673 20.082 15.4893 20.8056 15.4893C21.2859 15.4893 21.7615 15.3913 22.2052 15.201C22.649 15.0107 23.0522 14.7317 23.3918 14.3801C23.7315 14.0284 24.0009 13.6109 24.1847 13.1515C24.3685 12.692 24.4631 12.1996 24.4631 11.7022L24.4678 11.6779Z" fill="black"/>
<path d="M28.5588 19.9342L30.4087 18.8814C30.743 19.5003 31.2371 20.0106 31.8357 20.3549C32.4344 20.6993 33.1139 20.8641 33.7979 20.831C36.1516 20.831 37.3708 19.0033 37.3708 16.5225V15.5185C37.046 16.1792 36.5432 16.7283 35.9234 17.0994C35.3035 17.4705 34.593 17.6476 33.878 17.6094C30.4888 17.6094 28.8365 15.2943 28.8365 11.9264V5.98021H31.0536V11.8289C31.0536 13.9783 32.1363 15.4551 34.1463 15.4551C36.1563 15.4551 37.3566 13.7687 37.3566 11.6632V5.96558H39.6161V16.5176C39.6161 20.3583 37.446 22.9999 33.8544 22.9999C31.4961 22.9999 29.552 21.9959 28.5588 19.9342Z" fill="black"/>
<path d="M41.2312 11.6292C41.2312 8.32955 43.5142 5.63916 46.8375 5.63916C50.1608 5.63916 52.2602 8.14434 52.2602 11.3514V12.2872H43.4012C43.4925 13.2241 43.9238 14.0903 44.6079 14.7108C45.292 15.3314 46.1779 15.6601 47.087 15.6307C47.7401 15.6609 48.3884 15.5017 48.959 15.1711C49.5295 14.8404 49.9995 14.3514 50.3161 13.7591L52.0342 14.6705C51.5796 15.6096 50.8737 16.3934 50.0006 16.9283C49.1275 17.4633 48.1243 17.7268 47.1105 17.6875C46.3334 17.7158 45.559 17.5788 44.8351 17.2848C44.1113 16.9907 43.4534 16.546 42.9023 15.9781C42.3512 15.4102 41.9185 14.7312 41.631 13.9831C41.3436 13.2351 41.2075 12.4339 41.2312 11.6292ZM50.0243 10.786C50.0155 10.3639 49.9245 9.94806 49.7569 9.56322C49.5893 9.17838 49.3484 8.83253 49.0487 8.54631C48.749 8.2601 48.3966 8.03943 48.0126 7.89751C47.6286 7.75559 47.2209 7.69532 46.8139 7.72033C45.995 7.71596 45.2038 8.02753 44.5946 8.5943C43.9854 9.16107 43.6019 9.94241 43.5189 10.786H50.0243Z" fill="black"/>
<path d="M56.0289 11.8874V17.4339H53.793V11.6534C53.793 8.30506 55.7135 5.68774 59.2863 5.68774C62.8591 5.68774 64.8643 8.30504 64.8643 11.629V17.4339H62.6284V11.9117C62.6284 9.75747 61.4987 7.91025 59.2863 7.91025C57.0739 7.91025 56.0289 9.75748 56.0289 11.8874Z" fill="black"/>
<path d="M72.0059 11.6535V0.516602H75.2162V6.59924C76.0858 5.91027 77.148 5.5323 78.2429 5.52212C81.7216 5.52212 84.1176 8.05169 84.1176 11.6535C84.114 12.4685 83.9537 13.2745 83.646 14.0247C83.3383 14.7748 82.8893 15.4539 82.3253 16.0225C81.7614 16.591 81.0937 17.0375 80.3613 17.3359C79.6288 17.6343 78.8463 17.7786 78.0594 17.7605C74.5807 17.7605 72.0059 15.1725 72.0059 11.6535ZM80.9073 11.6535C80.898 11.0783 80.7251 10.5188 80.4102 10.0449C80.0953 9.57094 79.6524 9.2037 79.1369 8.9891C78.6215 8.77451 78.0563 8.72208 77.5122 8.8384C76.9681 8.95472 76.4692 9.23462 76.078 9.64305C75.6867 10.0515 75.4206 10.5703 75.3127 11.1346C75.2048 11.6989 75.2601 12.2836 75.4716 12.8156C75.6831 13.3475 76.0414 13.803 76.5017 14.1252C76.962 14.4473 77.5038 14.6217 78.0594 14.6266C78.4362 14.6299 78.8099 14.5551 79.1584 14.4065C79.5069 14.258 79.8232 14.0387 80.0886 13.7616C80.354 13.4846 80.5631 13.1553 80.7037 12.7932C80.8443 12.4312 80.9136 12.0437 80.9073 11.6535Z" fill="#5F718D"/>
<path d="M93.1341 11.2099V5.84863H96.3444V11.6047C96.3444 15.0165 94.4004 17.7361 90.6487 17.7361C86.897 17.7361 85 14.997 85 11.6047V5.84863H88.2104V11.2099C88.2104 12.984 89.0247 14.5047 90.6722 14.5047C92.3198 14.5047 93.1341 13.0084 93.1341 11.2099Z" fill="#5F718D"/>
<path d="M101.378 0.516602V17.434H98.168V0.516602H101.378Z" fill="#5F718D"/>
<path d="M107.052 0.516602V17.434H103.842V0.516602H107.052Z" fill="#5F718D"/>
<path d="M109.127 2.06166C109.131 1.51605 109.342 0.99389 109.714 0.608079C110.087 0.222269 110.591 0.00382895 111.118 0C111.512 0 111.897 0.120918 112.224 0.347457C112.552 0.573995 112.807 0.895989 112.958 1.27271C113.108 1.64943 113.148 2.06396 113.071 2.46388C112.994 2.8638 112.805 3.23116 112.526 3.51949C112.248 3.80782 111.893 4.00417 111.507 4.08372C111.12 4.16327 110.72 4.12243 110.356 3.96639C109.992 3.81035 109.681 3.54611 109.463 3.20707C109.244 2.86803 109.127 2.46942 109.127 2.06166ZM112.723 5.8487V17.434H109.513V5.8487H112.723Z" fill="#5F718D"/>
<path d="M114.17 11.6047C114.141 10.3555 114.472 9.12575 115.122 8.0726C115.771 7.01944 116.709 6.19074 117.816 5.6924C118.922 5.19406 120.147 5.04874 121.334 5.275C122.521 5.50127 123.616 6.08883 124.479 6.96261C125.341 7.83639 125.933 8.95667 126.177 10.1803C126.422 11.4039 126.309 12.6752 125.852 13.8318C125.395 14.9883 124.615 15.9776 123.613 16.673C122.61 17.3685 121.43 17.7386 120.223 17.7361C119.436 17.7503 118.653 17.6024 117.921 17.301C117.189 16.9996 116.522 16.5507 115.959 15.9803C115.396 15.4099 114.948 14.7294 114.641 13.9783C114.333 13.2272 114.173 12.4204 114.17 11.6047ZM123.113 11.6291C123.107 11.0449 122.934 10.4757 122.616 9.99313C122.298 9.51053 121.849 9.13602 121.326 8.91667C120.803 8.69731 120.229 8.6429 119.677 8.76028C119.124 8.87766 118.617 9.1616 118.22 9.57639C117.822 9.99117 117.552 10.5183 117.443 11.0915C117.335 11.6648 117.392 12.2586 117.608 12.7982C117.824 13.3379 118.189 13.7994 118.658 14.1247C119.127 14.45 119.678 14.6246 120.242 14.6265C120.62 14.6272 120.995 14.5499 121.344 14.3989C121.694 14.248 122.01 14.0265 122.276 13.7474C122.541 13.4684 122.75 13.1373 122.891 12.7736C123.032 12.4099 123.101 12.0208 123.095 11.6291H123.113Z" fill="#5F718D"/>
<path d="M130.503 12.0532V17.4145H127.293V11.6536C127.293 8.28573 129.214 5.52222 133.125 5.52222C137.037 5.52222 139 8.26136 139 11.6536V17.4341H135.79V12.0728C135.79 10.2938 134.956 8.77311 133.125 8.77311C131.294 8.77311 130.503 10.2986 130.503 12.0532Z" fill="#5F718D"/>
</g>
<defs>
<clipPath id="clip0_1_183">
<rect width="139" height="23" fill="white"/>
</clipPath>
</defs>
</svg>
